<?xml version="1.0" encoding="UTF-8" standalone="no"?>
<!-- Created with Inkscape (http://www.inkscape.org/) -->
<svg
   xmlns:dc="http://purl.org/dc/elements/1.1/"
   xmlns:cc="http://creativecommons.org/ns#"
   xmlns:rdf="http://www.w3.org/1999/02/22-rdf-syntax-ns#"
   xmlns:svg="http://www.w3.org/2000/svg"
   xmlns="http://www.w3.org/2000/svg"
   xmlns:sodipodi="http://sodipodi.sourceforge.net/DTD/sodipodi-0.dtd"
   xmlns:inkscape="http://www.inkscape.org/namespaces/inkscape"
   width="16px"
   height="16px"
   id="svg2383"
   sodipodi:version="0.32"
   inkscape:version="0.46"
   sodipodi:docname="button.svg"
   inkscape:output_extension="org.inkscape.output.svg.inkscape">
  <defs
     id="defs2385">
    <inkscape:perspective
       sodipodi:type="inkscape:persp3d"
       inkscape:vp_x="0 : 8 : 1"
       inkscape:vp_y="0 : 1000 : 0"
       inkscape:vp_z="16 : 8 : 1"
       inkscape:persp3d-origin="8 : 5.3333333 : 1"
       id="perspective2391" />
  </defs>
  <sodipodi:namedview
     id="base"
     pagecolor="#ffffff"
     bordercolor="#666666"
     borderopacity="1.0"
     inkscape:pageopacity="0.0"
     inkscape:pageshadow="2"
     inkscape:zoom="31.392433"
     inkscape:cx="7.5963558"
     inkscape:cy="7.8611593"
     inkscape:current-layer="layer1"
     showgrid="true"
     inkscape:grid-bbox="true"
     inkscape:document-units="px"
     inkscape:window-width="1073"
     inkscape:window-height="965"
     inkscape:window-x="543"
     inkscape:window-y="30">
    <inkscape:grid
       type="xygrid"
       id="grid3177" />
  </sodipodi:namedview>
  <metadata
     id="metadata2388">
    <rdf:RDF>
      <cc:Work
         rdf:about="">
        <dc:format>image/svg+xml</dc:format>
        <dc:type
           rdf:resource="http://purl.org/dc/dcmitype/StillImage" />
      </cc:Work>
    </rdf:RDF>
  </metadata>
  <g
     id="layer1"
     inkscape:label="Layer 1"
     inkscape:groupmode="layer">
    <rect
       style="fill:#000080"
       id="rect2397"
       width="16.037624"
       height="15.992575"
       x="0"
       y="0.052475106" />
    <path
       style="fill:#808080;fill-rule:evenodd;stroke:#000000;stroke-width:1px;stroke-linecap:butt;stroke-linejoin:miter;stroke-opacity:1"
       d="M 3.0580618,1.9520284 L 14.398375,8.1000069"
       id="path3203"
       sodipodi:nodetypes="cc" />
    <path
       style="fill:#e6e6e6;fill-rule:evenodd;stroke:#000000;stroke-width:1px;stroke-linecap:butt;stroke-linejoin:miter;stroke-opacity:1"
       d="M 3.2173359,13.961292 L 14.557648,7.9725877"
       id="path3213"
       sodipodi:nodetypes="cc" />
    <path
       style="fill:none;fill-rule:evenodd;stroke:#000000;stroke-width:1px;stroke-linecap:butt;stroke-linejoin:miter;stroke-opacity:1"
       d="M 3,1.6334803 L 3.0580618,14.375404"
       id="path3217"
       sodipodi:nodetypes="cc" />
    <path
       style="fill:#808080"
       d="M 3.0211299,14.373568 L 2.5711011,14.364755 L 2.5518002,10.105024 C 2.5411853,7.7621728 2.5246125,4.9027901 2.5149719,3.7508405 L 2.4974435,1.6563867 L 2.8476773,1.6563867 C 3.1549921,1.6563867 3.2050672,1.6487046 3.2563159,1.5936955 C 3.3139282,1.5318557 3.3912914,1.5725136 8.9511001,4.5865355 C 12.051107,6.2670775 14.592637,7.6575413 14.598941,7.6764544 C 14.605246,7.6953679 14.585293,7.7491659 14.554602,7.7960058 C 14.499463,7.8801592 14.500458,7.8842758 14.638646,8.1432959 C 14.715559,8.2874663 14.771576,8.4113369 14.763126,8.4185661 C 14.754674,8.4257952 12.267864,9.7399358 9.2368785,11.338879 C 6.2058933,12.937824 3.6686576,14.276724 3.598577,14.314216 C 3.4828711,14.376117 3.4297879,14.381573 3.0211296,14.373569 L 3.0211299,14.373568 z M 8.4812388,10.623012 C 11.131664,9.2244338 13.289031,8.069997 13.275388,8.0575982 C 13.243984,8.0290553 3.6166693,2.8132907 3.5470758,2.7871162 C 3.4998067,2.7693384 3.4965687,3.0316264 3.5076777,5.9788979 C 3.5143347,7.7450308 3.5284761,10.096303 3.5391031,11.203945 C 3.5568252,13.051087 3.5627251,13.21569 3.610356,13.191862 C 3.6389173,13.177574 5.8308153,12.021592 8.4812394,10.623013 L 8.4812388,10.623012 z"
       id="path3227" />
    <path
       style="fill:#336699"
       d="M 3.571085,12.319785 C 3.5361435,10.852404 3.5086273,2.845099 3.5384664,2.8275842 C 3.5720847,2.8078505 13.231644,8.0342496 13.215193,8.0632712 C 13.19945,8.0910419 11.753054,8.8740427 10.176595,9.7082033 C 6.2284427,11.797313 3.6444247,13.155973 3.6193301,13.155973 C 3.6037467,13.155973 3.5820364,12.779688 3.571085,12.319785 z"
       id="path3229" />
    <path
       style="fill:#336699"
       d="M 0.014910818,8.0528327 L 0.014910818,0.073202611 L 8.0263957,0.073202611 L 16.037881,0.073202611 L 16.037881,8.0528327 L 16.037881,16.032463 L 8.0263957,16.032463 L 0.014910818,16.032463 L 0.014910818,8.0528327 z M 3.8254648,14.218595 C 3.9809988,14.132959 6.4233024,12.841783 9.2528059,11.349314 C 12.082309,9.8568468 14.486595,8.5865034 14.595663,8.5263306 L 14.793968,8.4169252 L 14.660343,8.1474912 L 14.526717,7.8780571 L 14.584991,7.7794069 C 14.617452,7.7244545 14.631133,7.6686981 14.615876,7.6535339 C 14.600812,7.6385618 12.904164,6.7130073 10.845546,5.5967465 C 8.7869293,4.4804864 6.2496936,3.1046271 5.207245,2.5392823 C 3.3209474,1.5162988 3.3115693,1.5116767 3.2461211,1.5727357 C 3.1896237,1.6254439 3.1319595,1.6340883 2.8368339,1.6340883 L 2.4933091,1.6340883 L 2.5129218,7.4874098 C 2.5237087,10.706737 2.5409642,13.573275 2.5512673,13.857495 L 2.5700005,14.374259 L 3.0046524,14.38356 C 3.24371,14.388675 3.4625618,14.388684 3.490989,14.383578 C 3.5194159,14.378474 3.6699302,14.304231 3.8254645,14.218595 L 3.8254648,14.218595 z"
       id="path3231" />
    <path
       style="fill:#888888"
       d="M 3.6021253,12.902728 C 3.5702113,12.526066 3.5398756,2.8341256 3.5706687,2.8524871 C 3.5860179,2.8616396 3.9712783,3.0662762 4.4268021,3.3072346 C 7.135281,4.7399394 13.172023,8.026246 13.170118,8.0669565 C 13.169124,8.0881782 12.837385,8.2709764 11.403006,9.0406924 C 9.4982724,10.06281 3.6680629,13.133675 3.6322498,13.133675 C 3.6264439,13.133675 3.6128881,13.029749 3.6021257,12.902728 L 3.6021253,12.902728 z"
       id="path3233" />
    <path
       style="fill:#888888"
       d="M 2.8138618,14.350751 L 2.6025338,14.341414 L 2.5832333,13.156195 C 2.5726183,12.504324 2.5564714,9.892448 2.5473514,7.3520269 C 2.5382314,4.8116057 2.5219217,2.4929737 2.511107,2.1995112 L 2.4914446,1.6659431 L 2.803838,1.6659431 C 2.9756546,1.6659431 3.224319,2.2869922 3.2785585,2.2673788 C 3.369712,2.2344177 3.3523221,1.5927469 3.7717019,1.8241768 C 4.5199033,2.2370632 14.442348,7.5723287 14.568883,7.6745613 C 14.575622,7.6800059 15.040434,7.9453448 15.017795,8 C 14.979676,8.0920273 14.886198,7.9336935 15,8.167107 C 15.076653,8.3243265 14.733198,8.3981733 14.714318,8.4162031 C 14.682555,8.4465368 13.74974,8.940949 7.7078476,12.129782 C 3.0141419,14.607059 3.5520448,14.338284 3.2641015,14.350199 C 3.1327004,14.355637 2.9300927,14.355885 2.8138621,14.35075 L 2.8138618,14.350751 z M 5.876196,12.012303 C 11.021531,9.3011628 13.267974,8.0969105 13.255953,8.0562345 C 13.247828,8.0287457 3.5888253,2.7818544 3.5451234,2.7811899 C 3.5332438,2.7810093 3.5129567,2.8632858 3.5000412,2.9640267 C 3.4715467,3.1862812 3.5385995,13.023523 3.5693181,13.127513 C 3.5843258,13.178317 3.6069309,13.194982 3.6425819,13.181522 C 3.67094,13.170817 4.676066,12.644668 5.876196,12.012304 L 5.876196,12.012303 z"
       id="path3235"
       sodipodi:nodetypes="cccscccsssssssscccssssscc" />
    <path
       style="fill:#888888"
       id="path3239"
       d="M 12.862475,7.5143305 C 12.915052,7.5906054 12.982051,7.6544364 13.044533,7.7222163 C 13.099616,7.7759727 13.160597,7.8228499 13.218883,7.8727852 C 13.270056,7.9215985 13.291223,7.9847623 13.294985,8.053735 C 13.281861,8.310096 13.107963,8.2870991 12.831567,8.448785 C 12.754256,8.4597778 12.676114,8.4614117 12.598162,8.4611923 C 12.511991,8.4580811 12.427116,8.459673 12.341723,8.4710883 C 12.25841,8.4778365 12.182482,8.5115506 12.106439,8.5431717 C 11.940401,8.6439935 12.186041,8.4944212 12.444796,8.3514767 C 12.453244,8.3468097 12.429575,8.363423 12.422746,8.3702435 C 12.417968,8.3750154 12.415466,8.3819529 12.410134,8.3860962 C 12.408826,8.3871124 12.40711,8.3826674 12.408274,8.3814891 C 12.411269,8.378457 12.416033,8.3779604 12.419913,8.376196 C 12.510956,8.3802714 12.603126,8.3882826 12.693531,8.3743109 C 12.759046,8.3636655 12.825743,8.3383743 12.889198,8.3663367 C 12.947587,8.4108664 12.927785,8.4650758 12.899029,8.5196491 C 12.799687,8.7148307 12.537474,8.7900344 12.370028,8.885494 C 12.307642,8.9046624 12.242039,8.9060142 12.177345,8.9072427 C 12.10061,8.9034992 12.025268,8.9080017 11.94924,8.9170778 C 11.843905,8.9391817 11.73727,8.9527032 11.631567,8.9729039 C 11.542073,8.9904156 11.450917,8.9968716 11.359953,9.0005954 C 11.292008,9.002752 11.224019,9.0024891 11.15605,9.0023915 C 10.995771,9.0414574 10.809783,9.2439771 11.51137,8.7930011 C 11.519142,8.788005 11.502214,8.776704 11.499938,8.7677489 C 11.495985,8.7521972 11.506292,8.7495369 11.516576,8.7408724 C 11.579878,8.7220487 11.642194,8.699848 11.706143,8.6830655 C 11.786438,8.6680378 11.868369,8.6662565 11.949801,8.6641558 C 12.027698,8.6670585 12.102745,8.6568932 12.17401,8.6250381 C 12.220478,8.609986 12.292892,8.567855 12.343319,8.579509 C 12.351203,8.5813312 12.35746,8.5873822 12.36453,8.5913188 C 12.377403,8.6125338 12.386577,8.6194023 12.381621,8.6468701 C 12.37714,8.6717115 12.338782,8.6952043 12.320143,8.7061233 C 12.176626,8.7901983 12.032046,8.872444 11.887997,8.9556043 C 11.795699,8.9800017 11.701741,8.9988794 11.607747,9.0157762 C 11.556039,9.0288374 11.501663,9.0242268 11.449463,9.0320062 C 11.428792,9.0350867 11.408866,9.0420062 11.388384,9.0461574 C 11.306345,9.0550596 11.224969,9.0602672 11.143817,9.0755184 C 10.996793,9.1291831 10.752484,9.2826886 11.448688,8.8940424 C 11.459046,8.8882599 11.428822,8.907051 11.419372,8.9142229 C 11.393159,8.9341166 11.387905,8.9407396 11.364816,8.9635181 C 11.317205,9.0193131 11.279693,9.0816038 11.230109,9.1358762 C 11.193797,9.1838213 11.138483,9.2247245 11.11714,9.2825228 C 11.182066,9.2997856 11.25112,9.3002799 11.317915,9.3025477 C 11.414702,9.307719 11.509809,9.3038498 11.603922,9.28023 C 11.748511,9.2088167 11.972802,9.0864475 11.311812,9.4502585 C 11.299228,9.4571847 11.335311,9.4336347 11.34606,9.424107 C 11.369698,9.403156 11.382241,9.3852382 11.401866,9.3606521 C 11.445926,9.2961928 11.459814,9.2772138 11.377305,9.264857 C 11.228133,9.248363 11.077646,9.2503063 10.927798,9.2519617 C 10.844815,9.2555461 10.753312,9.2468998 10.675475,9.2823045 C 12.042973,8.5976911 10.345796,9.3949728 10.657106,9.2142392 C 10.799206,9.1317417 10.94198,9.0504045 11.08494,8.9694061 C 11.095613,8.9633592 11.106945,8.9585591 11.117947,8.9531356 C 11.130456,8.9459376 11.142965,8.9387397 11.155474,8.9315417 C 11.211868,8.9072854 11.296804,8.8480584 11.358252,8.8838644 C 11.362891,8.8988794 11.371863,8.9131972 11.372168,8.9289094 C 11.373029,8.9733301 11.285536,9.0293648 11.254236,9.0475878 C 11.107293,9.1331412 10.959661,9.2175084 10.812374,9.3024687 C 11.721483,8.778544 10.751567,9.3384637 10.720743,9.3557235 C 10.672979,9.3824687 10.592774,9.4091972 10.539279,9.423441 C 10.52608,9.4285143 10.512606,9.4329255 10.49968,9.4386609 C 10.475944,9.449193 10.452734,9.4608917 10.429613,9.4727148 C 10.418628,9.4783326 10.386681,9.4970599 10.397383,9.4909188 C 10.777321,9.2728935 10.880817,9.2012373 10.735823,9.3000949 C 10.686281,9.3342128 10.652396,9.3738009 10.635391,9.4314072 C 10.621859,9.484042 10.624853,9.5325749 10.653404,9.5791485 C 10.655598,9.5799983 10.659673,9.5840303 10.659987,9.5816981 C 10.660864,9.5751888 10.661486,9.5594614 10.655651,9.5624767 C 10.518606,9.6332945 10.388557,9.7169354 10.253618,9.7916886 C 10.249802,9.7938027 10.259494,9.7850297 10.261179,9.7810058 C 10.26431,9.773529 10.265647,9.7654217 10.267882,9.7576297 C 10.272324,9.7473065 10.276766,9.7369833 10.281208,9.7266601 C 10.392484,9.5537964 10.599179,9.4915223 10.77841,9.3943103 C 10.795812,9.3848716 10.817657,9.40207 10.830276,9.4091823 C 10.866288,9.4478654 10.877352,9.5024466 10.890989,9.5523294 C 10.921462,9.7297173 10.904452,9.5933508 10.480409,9.8193797 C 10.472887,9.8233894 10.467125,9.8086596 10.460049,9.8039054 C 10.44263,9.7922015 10.423574,9.7869852 10.403613,9.7815066 C 10.324211,9.7481182 10.235857,9.7403013 10.151289,9.7267989 C 10.097317,9.7181459 10.044679,9.6977027 9.9893803,9.6977811 C 9.9543837,9.6978307 9.9560431,9.7009151 9.9287847,9.7160483 C 10.057045,9.6442286 10.185305,9.5724089 10.313565,9.5005892 C 10.269083,9.5318727 10.27375,9.5940982 10.272401,9.6429495 C 10.2765,9.6911136 10.256676,9.7551421 10.29462,9.7928534 C 10.352968,9.7930744 10.40725,9.7897317 10.461177,9.766411 C 10.472194,9.7620619 10.483671,9.7587326 10.49423,9.7533637 C 10.504108,9.7483407 10.512872,9.741377 10.522193,9.7353837 C 10.532813,9.7306324 10.543628,9.7262941 10.554053,9.7211298 C 10.564899,9.7157573 10.596445,9.6977517 10.58596,9.7037967 C 10.464007,9.7741018 10.098473,9.985559 10.219644,9.9139153 C 10.362647,9.8293634 10.507521,9.7480177 10.65146,9.6650688 C 9.9698067,10.064048 10.28658,9.9014886 10.413949,9.7698014 C 10.45109,9.7228661 10.471481,9.6671695 10.483933,9.6093395 C 10.499072,9.5372069 10.474286,9.5225754 10.408874,9.5014926 C 10.333424,9.4707089 10.253361,9.4575986 10.172677,9.4508602 C 10.098475,9.4462213 10.024084,9.446865 9.9497773,9.4471898 C 9.8974429,9.4642919 9.8414509,9.466619 9.7892037,9.4824094 C 9.6319123,9.5570153 9.7424277,9.5054186 10.136402,9.2835538 C 10.14538,9.2784977 10.118564,9.2938815 10.109831,9.2993507 C 10.085499,9.3145894 10.067884,9.3306399 10.049206,9.3522485 C 10.007406,9.3973807 9.9981356,9.4575392 9.9915571,9.5163371 C 9.9864273,9.5800173 9.987067,9.6439764 9.9872068,9.7078094 C 9.9874831,9.7716437 9.9877041,9.835478 9.9878232,9.8993128 C 9.9885705,9.9589935 9.9760258,9.9850874 10.020313,10.027664 C 10.165384,10.353178 9.6130628,10.308618 9.4513058,10.307307 C 9.3644238,10.306581 9.2772505,10.31985 9.1916496,10.334512 C 9.1862311,10.336143 9.1810065,10.340123 9.1753939,10.339403 C 9.169864,10.338694 9.1642529,10.335248 9.1611711,10.330602 C 9.1307353,10.284717 9.1510302,10.260844 9.1859238,10.229648 C 9.3775125,10.060839 9.3374319,10.119129 9.7236086,9.9587389 C 9.7030906,10.021648 9.6699172,10.079995 9.6415246,10.139752 C 9.5663073,10.319535 9.2199238,10.577556 9.1641121,10.340318 C 9.1589818,10.276931 9.1530354,10.214002 9.1441663,10.150954 C 9.1477627,10.14699 9.1252751,10.011775 9.117509,10.082985 C 9.2490692,10.009356 9.3803558,9.9352372 9.5121894,9.8620999 C 9.5180297,9.8588599 9.4990366,9.8636255 9.4821451,9.8903747 C 9.4675546,9.9134799 9.462231,9.9398357 9.4564936,9.966053 C 9.450719,10.030067 9.4384769,10.093032 9.4281414,10.156402 C 9.3995882,10.359309 9.1745847,10.585737 8.9457394,10.505049 C 8.9068631,10.478965 8.8626631,10.446637 8.8155863,10.469514 C 8.7186771,10.609276 8.8074558,10.476324 9.1924264,10.260443 C 9.1979029,10.257372 9.1835316,10.269487 9.1803542,10.274903 C 9.1672116,10.297302 9.1625802,10.327038 9.1553419,10.35163 C 9.1412373,10.409522 9.1330672,10.468195 9.1179005,10.525874 C 9.0713008,10.730999 9.1793141,10.580625 8.6814347,10.782493 C 8.6798442,10.783138 8.6793855,10.760865 8.6784437,10.730639 C 8.6776416,10.677862 8.6688817,10.623931 8.6541171,10.573215 C 8.6304646,10.527142 8.5819203,10.552843 8.5472018,10.572183 C 9.1892872,10.206526 8.9019269,10.3206 8.788386,10.508535 C 8.7565962,10.556422 8.7379607,10.6098 8.7174754,10.662878 C 8.6817074,10.830095 8.3408709,11.042547 8.2754628,10.866753 C 8.2667972,10.843463 8.2674313,10.815666 8.2660699,10.791307 C 8.2654714,10.770917 8.2654557,10.758841 8.2637635,10.739211 C 8.2633305,10.734188 8.2562001,10.726501 8.2607758,10.724384 C 8.6916525,10.525049 8.7859301,10.416713 8.6735192,10.54248 C 8.6483852,10.595513 8.6303,10.65103 8.6050801,10.704072 C 8.493564,10.964555 8.5812795,10.81964 8.1397863,11.086264 C 8.0986209,11.0388 8.1052705,10.980541 8.1049286,10.921717 C 8.1071394,10.860274 8.102554,10.798777 8.0852723,10.739625 C 8.0640281,10.685675 8.0170464,10.657348 7.9642858,10.640249 C 7.9046264,10.624539 7.8450842,10.624057 7.7886121,10.649907 C 7.8650314,10.600085 7.6331997,10.73329 7.7102533,10.688699 C 8.3625992,10.311187 8.1783901,10.414479 8.0428717,10.501701 C 8.0040661,10.533651 7.9738561,10.57535 7.9497924,10.619217 C 7.9290529,10.668305 7.9149765,10.722728 7.9280466,10.775364 C 7.9565705,10.81767 7.9921524,10.858862 8.0371333,10.883961 C 8.175818,10.79447 8.0726326,10.861541 7.65058,11.089114 C 7.6457887,11.091697 7.6610678,11.085793 7.6656877,11.082914 C 7.6690402,11.080825 7.6716171,11.070746 7.6736469,11.074134 C 7.6796741,11.084197 7.6843385,11.095015 7.6896843,11.105456 C 7.8249503,11.027947 7.9602163,10.950438 8.0954822,10.872929 C 8.0868302,10.875322 8.088806,10.873595 8.1003629,10.890021 C 8.1161767,10.912499 8.1359156,10.932143 8.1517166,10.954976 C 8.1568021,10.964386 8.1616095,10.973952 8.1669732,10.983206 C 8.1671148,10.98345 8.1863253,11.017529 8.1935135,11.018219 C 8.197399,11.018592 8.2008206,11.005374 8.1973469,11.007154 C 7.8178152,11.20167 7.6712481,11.321658 7.8038795,11.21424 C 7.8236149,11.136923 7.8206872,11.055392 7.8208284,10.976082 C 7.8201859,10.938163 7.8210178,10.900199 7.820022,10.862284 C 7.8192086,10.831315 7.8091419,10.814133 7.828789,10.862109 C 8.4962437,10.469081 8.2682699,10.510699 8.2074253,10.676529 C 8.1937796,10.71372 8.1875863,10.753931 8.1793471,10.792499 C 8.1598391,10.890015 8.1348893,10.986502 8.1042626,11.081112 C 8.0852416,11.143454 8.0610133,11.200214 8.0204712,11.251192 C 7.8672868,11.380247 7.6691591,11.50664 7.46301,11.541431 C 7.3821053,11.556145 7.3211158,11.515183 7.2730054,11.454404 C 7.2344494,11.391341 7.2188246,11.317472 7.2021892,11.246188 C 7.1978934,11.239158 7.1910193,11.14338 7.1813616,11.150476 C 7.1723992,11.157061 7.1695822,11.169423 7.1624948,11.177994 C 7.0181228,11.274262 7.1639734,11.1762 7.5054852,10.98409 C 7.517891,10.977111 7.4814023,10.999305 7.4698687,11.007646 C 7.4333856,11.034032 7.4051843,11.065603 7.3762112,11.099717 C 7.33401,11.161881 7.2826923,11.2177 7.2472452,11.284175 C 7.2216173,11.339749 7.2184912,11.400888 7.2162568,11.461033 C 7.2047195,11.656058 7.1694238,11.556141 6.7893593,11.731504 C 6.7832547,11.734321 6.7484103,11.66304 6.7461591,11.65845 C 6.7184723,11.570466 6.6909086,11.589921 6.6137444,11.613617 C 6.5989672,11.619856 6.584044,11.625759 6.5694127,11.632333 C 6.5364403,11.647147 6.4417181,11.700103 6.4730686,11.682109 C 7.092772,11.326419 6.8751428,11.445948 6.741053,11.535998 C 6.8111457,10.946782 6.4484045,11.832408 6.2849693,11.778318 C 6.2563388,11.768842 6.2433021,11.729381 6.2290629,11.779676 C 6.8211606,11.231045 6.6603954,11.539064 6.5207914,11.663865 C 6.4663426,11.696914 6.4234187,11.73878 6.3910556,11.793436 C 6.3687296,11.840266 6.3587177,11.892316 6.3597745,11.944081 C 6.3604224,11.945565 6.3631736,11.947823 6.3617181,11.948533 C 5.7865621,12.228984 5.9583727,12.281594 5.9360844,12.049654 C 5.9240993,11.994001 5.8795213,11.965086 5.8291312,11.947295 C 5.8214657,11.943502 5.7896578,11.928894 5.7820273,11.92126 C 5.7763822,11.915612 5.7525605,11.875625 5.76385,11.868193 C 6.1355183,11.623513 6.0262186,11.628176 6.2087969,11.62678 C 6.2479482,11.622316 6.2883825,11.629664 6.3274163,11.625193 C 6.3468524,11.622967 6.3655774,11.616506 6.384815,11.612952 C 6.4482175,11.600618 6.5128866,11.607275 6.5706597,11.575903 C 6.747283,11.454059 6.1013549,11.828917 6.2224693,11.773054 C 6.3707706,11.70465 6.5051292,11.609197 6.6495635,11.532967 C 6.656846,11.529123 6.6663965,11.532034 6.6742113,11.53463 C 6.691732,11.54045 6.7036557,11.555972 6.7157388,11.568461 C 6.7563528,11.622082 6.7619377,11.688197 6.766702,11.752926 C 6.7781347,11.848871 6.7478626,11.929709 6.6887316,12.003596 C 6.4917334,12.195148 6.2840335,12.295389 6.0313168,12.31342 C 5.94739,12.313304 5.8622893,12.322814 5.7790755,12.309798 C 5.6954823,12.282203 5.6511161,12.196971 5.5999084,12.130711 C 5.5124959,12.030239 5.4126374,11.94197 5.3216602,11.84486 C 5.2906956,11.815221 5.2521984,11.744209 5.2072945,11.731801 C 5.1867677,11.726129 5.1667383,11.741889 5.1509588,11.750276 C 5.0030007,11.859403 5.1523088,11.747329 5.4816269,11.568005 C 5.4957982,11.560289 5.4557929,11.587353 5.4431186,11.59734 C 5.4054425,11.627027 5.3714731,11.65874 5.3379637,11.692968 C 5.2865294,11.74438 5.2597135,11.806534 5.247006,11.876858 C 5.232765,11.951311 5.2454666,12.018312 5.2801952,12.084755 C 5.3269335,12.163729 5.4005659,12.218352 5.4723382,12.272857 C 5.5302822,12.31566 5.5942051,12.388364 5.6734444,12.362837 C 5.7862626,12.235426 5.684035,12.354425 5.303819,12.565711 C 5.2963005,12.569889 5.3170925,12.554758 5.3234594,12.548975 C 5.3469081,12.527676 5.358953,12.506821 5.3720849,12.478256 C 5.3912521,12.422223 5.4029202,12.364312 5.3835752,12.307418 C 5.3518606,12.255773 5.3213081,12.227782 5.2667831,12.269338 C 5.3920403,12.199069 5.5163372,12.127059 5.6425548,12.05853 C 5.6528643,12.052932 5.6235445,12.072369 5.6149181,12.080319 C 5.5805493,12.111993 5.5616997,12.150543 5.5463144,12.193753 C 5.5328423,12.250225 5.5179422,12.306266 5.5043524,12.362708 C 5.4844755,12.413713 5.475599,12.467694 5.4616738,12.52038 C 5.4492952,12.589639 5.3988291,12.628089 5.3516575,12.673946 C 5.1878115,12.826511 4.9989172,12.945246 4.7815169,12.951484 C 4.6885337,12.944716 4.6027701,12.916692 4.5230742,12.869056 C 4.4434335,12.811811 4.377763,12.737817 4.3094933,12.667944 C 4.2541642,12.610531 4.2023622,12.554996 4.1739962,12.479573 C 4.0589199,12.300579 4.4992554,12.06078 4.5994757,12.247058 C 4.6342599,12.302513 4.6692904,12.357728 4.6973544,12.417001 C 4.7212904,12.470108 4.7579679,12.496535 4.8130414,12.50999 C 4.8731386,12.522817 4.9312612,12.51843 4.9906737,12.506782 C 4.9974145,12.518716 5.0923576,12.470091 5.0829694,12.475457 C 4.3801034,12.87722 4.6441607,12.755837 4.7552802,12.64943 C 4.7706552,12.642772 4.77395,12.624963 4.7854603,12.614905 C 4.7908036,12.610236 4.7930678,12.629299 4.7900072,12.635701 C 4.7843865,12.647458 4.767087,12.648107 4.7556019,12.654263 C 4.7472155,12.65949 4.7390906,12.665163 4.7304426,12.669945 C 4.7104345,12.681008 4.690314,12.691868 4.6702628,12.702853 C 4.6596305,12.708678 4.6272442,12.725198 4.6377329,12.719119 C 5.0688516,12.469228 5.1255439,12.432863 4.9819337,12.523602 C 3.8574753,13.167824 4.9146952,12.561668 4.9314726,12.552095 C 4.9391914,12.54769 4.9163833,12.561489 4.9087802,12.56609 C 4.8850853,12.58043 4.8656644,12.595628 4.8450553,12.61423 C 4.803935,12.655265 4.7537024,12.685137 4.7076286,12.720074 C 4.6532755,12.754331 4.6000119,12.78985 4.5498046,12.82999 C 4.4024696,12.950012 4.2242445,13.031093 4.0595483,13.120133 C 4.034284,13.133792 3.9946274,13.123316 3.969772,13.11631 C 3.9109013,13.098614 3.8589145,13.057547 3.8145336,13.01571 C 3.7798235,12.96491 3.7367982,12.930536 3.679437,12.909618 C 3.6414147,12.897961 3.6004725,12.888418 3.5646114,12.870479 C 3.5595184,12.867931 3.5558669,12.86257 3.5503887,12.861015 C 3.5487133,12.860539 3.5493106,12.864327 3.5487715,12.865983 C 3.9520038,12.596752 3.8853827,12.487735 4.049691,12.722534 C 4.091398,12.774878 4.1321014,12.83134 4.1878453,12.869553 C 4.2377096,12.892959 4.3020738,12.884071 4.3539537,12.869323 C 4.3442863,12.896786 4.4760504,12.810044 4.4408135,12.829949 C 3.7082569,13.243773 3.9947519,13.110554 4.1098112,13.014093 C 4.1388832,12.981716 4.1586356,12.937165 4.1177792,12.907488 C 4.0449033,12.886551 3.9674143,12.88739 3.8921479,12.886329 C 3.8528417,12.883727 3.8148004,12.888491 3.7784624,12.90413 C 3.7670079,12.909059 3.7344648,12.927617 3.7452977,12.92144 C 4.1378571,12.697602 4.2302561,12.630814 4.0863738,12.732542 C 4.0338194,12.7739 4.0142292,12.831532 4.0039145,12.895039 C 3.996742,12.957889 3.9978384,13.021296 3.9981192,13.084443 C 4.0008749,13.149169 3.9695816,13.18673 3.917363,13.219099 C 3.7804577,13.303619 3.4864796,13.629743 3.4024319,13.396775 C 3.388932,13.337329 3.390364,13.275776 3.3901532,13.215166 C 3.3902776,13.150887 3.3906778,13.08661 3.3908812,13.022332 C 3.3832538,12.952528 3.3728404,12.883084 3.3665561,12.813075 C 3.3609548,12.752777 3.359137,12.69233 3.3587329,12.631809 C 3.3586511,12.570687 3.3589386,12.509565 3.3590746,12.448443 C 3.3516207,12.394117 3.3398845,12.340682 3.3338769,12.286083 C 3.3281576,12.223745 3.327737,12.161092 3.3272924,12.098544 C 3.3270503,12.034766 3.3272091,11.970986 3.3272796,11.907207 C 3.3273498,11.843473 3.3273682,11.779739 3.3273797,11.716006 C 3.3266626,11.644207 3.3284859,11.572429 3.3288431,11.500638 C 3.3298588,11.40948 3.3295948,11.31832 3.3287975,11.227162 C 3.3279339,11.149936 3.3285038,11.07271 3.3281502,10.99548 C 3.3277122,10.92123 3.3283768,10.846988 3.32811,10.772735 C 3.3277797,10.704965 3.3275737,10.637195 3.3274639,10.569424 C 3.3271165,10.499294 3.3277272,10.429169 3.3286366,10.359045 C 3.3296926,10.26823 3.32958,10.177393 3.3289685,10.086572 C 3.3291879,9.9924318 3.3294737,9.8982935 3.3298804,9.8041539 C 3.3318845,9.668118 3.3333761,9.5320828 3.3333023,9.3960313 C 3.3353398,9.2333438 3.3321712,9.0708289 3.3412005,8.9083342 C 3.3511226,8.787127 3.3567986,8.6657075 3.3603342,8.5441684 C 3.361511,8.4529613 3.3610147,8.3617383 3.3608075,8.2705258 C 3.3596273,8.1823088 3.3612544,8.0940951 3.3621193,8.0058832 C 3.3579074,7.9006686 3.3696005,7.7960981 3.3799006,7.6915993 C 3.3878227,7.605037 3.3901743,7.5181284 3.3922187,7.4312746 C 3.3945368,7.3466382 3.3795577,7.2627638 3.370342,7.1788696 C 3.3628141,7.1094071 3.3606639,7.039556 3.359525,6.9697487 C 3.3588183,6.8994017 3.359823,6.8290593 3.3597361,6.758708 C 3.3595615,6.6911004 3.3593977,6.6234928 3.3593116,6.555885 C 3.3592436,6.4920006 3.3592403,6.4281162 3.3592365,6.3642318 C 3.3607267,6.2839488 3.3602391,6.2036524 3.3608264,6.1233631 C 3.3619269,6.0303865 3.3615761,5.9374048 3.3607177,5.8444277 C 3.360038,5.7607293 3.3610207,5.6770319 3.3606233,5.5933308 C 3.3608233,5.5029904 3.3614201,5.4126494 3.3611993,5.3223085 C 3.3621288,5.2354255 3.3600013,5.1485507 3.3604849,5.0616698 C 3.3612371,4.968743 3.3616381,4.8758072 3.3613422,4.7828767 C 3.3609908,4.704052 3.359377,4.6252329 3.3600847,4.5464079 C 3.3605029,4.4610721 3.3612445,4.3757428 3.3607975,4.2904049 C 3.3597294,4.2143173 3.3599993,4.1382345 3.3601551,4.0621457 C 3.3612409,3.9824784 3.36033,3.902801 3.359848,3.8231322 C 3.359443,3.7569138 3.3593288,3.6906941 3.3592638,3.6244745 C 3.3592201,3.5608556 3.3592288,3.4972366 3.3592317,3.4336177 C 3.3577388,3.3610356 3.339111,3.2910757 3.3218285,3.2211259 C 3.3130112,3.1605495 3.292692,3.1029 3.2790617,3.0434456 C 3.2625934,2.9813503 3.2728873,2.9193055 3.2815291,2.8570816 C 3.3006781,2.6609561 3.3135708,2.7696807 3.7054806,2.5706924 C 3.7149248,2.5658972 3.7233197,2.5821469 3.7325999,2.5872522 C 3.7515792,2.5976933 3.7713831,2.6065648 3.7906019,2.6165581 C 3.8971241,2.6590846 4.0035342,2.7020575 4.1081637,2.7490695 C 4.200885,2.7901801 4.2935032,2.8311636 4.3882026,2.8675399 C 4.4599809,2.8990199 4.5270565,2.9380794 4.5925352,2.9810876 C 4.6662549,3.0340534 4.7366996,3.0919723 4.8050514,3.1516478 C 4.8542459,3.1876709 4.8957521,3.2343896 4.9250492,3.2878145 C 4.9567088,3.3363466 4.9865585,3.3850517 5.0232413,3.4301795 C 5.0801556,3.4837588 5.1394407,3.5346038 5.2030854,3.5799923 C 5.2996381,3.6292865 5.4026254,3.6681877 5.5072016,3.6971062 C 5.5853784,3.7134089 5.6612596,3.7385515 5.7367825,3.7639903 C 5.8112047,3.8034813 5.8911412,3.8292437 5.9716658,3.8531867 C 6.043195,3.8800426 6.1134483,3.9105659 6.1874806,3.9297869 C 6.2508633,3.9540098 6.3155136,3.9809301 6.3698904,4.0221594 C 6.424477,4.0546388 6.4786767,4.087889 6.5345147,4.1184137 C 6.6281111,4.1757929 6.7281399,4.2192031 6.8306608,4.2578327 C 6.9136985,4.2886998 6.9927301,4.3275405 7.0692863,4.3719309 C 7.1314722,4.4119534 7.1969069,4.44706 7.2621153,4.4820066 C 7.3235395,4.5115836 7.3869005,4.5360681 7.4510364,4.5590689 C 7.5157551,4.5840009 7.5757795,4.6160528 7.6287093,4.6610557 C 7.6804178,4.6944792 7.7305631,4.7291274 7.7779076,4.7688458 C 7.8302515,4.8201685 7.8823634,4.870237 7.9408023,4.9146398 C 8.0127629,4.9680024 8.0781246,5.0285409 8.1421357,5.0910351 C 8.1550108,5.1026237 8.1681803,5.1138932 8.180761,5.1258008 C 8.2218096,5.1646532 8.2608438,5.2026977 8.3092706,5.2328192 C 8.3422282,5.2533189 8.3770672,5.2706639 8.4102211,5.2908445 C 8.5047062,5.3498564 8.5993088,5.4084609 8.6955974,5.4644535 C 8.7678654,5.5015802 8.8433014,5.5309148 8.9151271,5.5690999 C 8.9954332,5.6151468 9.0658399,5.6756668 9.1395757,5.7311617 C 9.1847347,5.7683635 9.2384842,5.7835209 9.2918942,5.8030562 C 9.3237997,5.814726 9.3544438,5.8295977 9.3859117,5.8424007 C 9.3996955,5.8495193 9.4138204,5.8560129 9.4272631,5.8637565 C 9.4812212,5.8948386 9.4464298,5.8807076 9.5006081,5.9073138 C 9.5361106,5.9247486 9.574223,5.9357636 9.6113588,5.9490621 C 9.7175938,5.992305 9.8000003,6.0762229 9.8916545,6.1429146 C 9.9708812,6.2029865 10.035963,6.2778787 10.128161,6.3186062 C 10.216786,6.3543529 10.307274,6.3849264 10.400557,6.4059378 C 10.500033,6.4204851 10.587901,6.4669113 10.681164,6.5001053 C 10.84406,6.5431076 11.002517,6.6020945 11.161429,6.6580694 C 11.318196,6.7057176 11.464457,6.7773755 11.613614,6.8433573 C 11.68597,6.8708672 11.734979,6.9278271 11.787119,6.9817335 C 11.832496,7.0230682 11.878339,7.0633916 11.925169,7.1032194 C 11.973976,7.1381064 12.016791,7.1804023 12.061233,7.2205929 C 12.103748,7.2584918 12.153219,7.2846707 12.200626,7.3151335 C 12.255839,7.3522795 12.304304,7.397747 12.364594,7.4269151 C 12.413445,7.4553126 12.462406,7.482197 12.497566,7.527311 C 12.527352,7.5696336 12.578249,7.5693691 12.62133,7.5896074 C 12.681652,7.621425 12.744803,7.6455054 12.807586,7.6717547 C 12.852962,7.6858798 12.829299,7.67958 12.878677,7.690269 L 12.496066,7.9548867 C 12.442339,7.9411694 12.468019,7.9488966 12.418906,7.9321096 C 12.355436,7.9077912 12.296384,7.875133 12.23324,7.8503229 C 12.179097,7.8342304 12.127744,7.8176726 12.093768,7.7689108 C 12.061405,7.730857 12.014935,7.7089976 11.97313,7.6829785 C 11.91465,7.6490261 11.864249,7.6041206 11.806579,7.5690335 C 11.756259,7.538435 11.70656,7.5070631 11.661902,7.4683265 C 11.617567,7.429016 11.578187,7.3845802 11.529013,7.3510223 C 11.479991,7.3112056 11.433282,7.2692896 11.387591,7.2256979 C 11.339279,7.1759197 11.29444,7.1243959 11.227801,7.0981058 C 11.087469,7.0252778 10.94755,6.9525785 10.795553,6.9058091 C 10.630652,6.8504871 10.464192,6.8011141 10.295306,6.7596367 C 10.206008,6.7237947 10.119046,6.6831207 10.023042,6.6671987 C 9.926116,6.6437843 9.8293579,6.6163424 9.7385061,6.5746669 C 9.650667,6.5246791 9.5844779,6.4494289 9.5051237,6.3878924 C 9.4166103,6.3220825 9.3321252,6.2455374 9.2261105,6.2093571 C 9.1465223,6.181331 9.0744722,6.1412082 9.0014115,6.0995355 C 8.9143943,6.0636542 8.8212257,6.0396472 8.7466746,5.9793449 C 8.6755516,5.9248714 8.6078072,5.864854 8.5276301,5.8236276 C 8.4536905,5.7875819 8.3754951,5.7603056 8.3056143,5.7162462 C 8.2127474,5.6562684 8.1189582,5.5977225 8.0243938,5.5404495 C 7.9242912,5.4811047 7.8290067,5.4184737 7.7483847,5.3331865 C 7.6846997,5.2719775 7.6172857,5.2158997 7.5458742,5.1638717 C 7.4875203,5.1188375 7.4378372,5.0654417 7.3827847,5.0167917 C 7.3337413,4.9787743 7.2800481,4.9481547 7.2313894,4.9098017 C 7.1808523,4.869634 7.1241682,4.8417754 7.0633983,4.820159 C 6.9981755,4.7951013 6.9327888,4.7704042 6.871237,4.7369506 C 6.8067443,4.700438 6.7406655,4.6667431 6.6787668,4.625832 C 6.6039902,4.5839253 6.5275904,4.5457809 6.4475975,4.5146572 C 6.3445001,4.4718454 6.2431685,4.4257639 6.1444881,4.373459 C 6.0863576,4.3428986 6.0291939,4.3097833 5.9743514,4.2737111 C 5.9217657,4.2389678 5.8631772,4.2116504 5.8029809,4.1932385 C 5.7301395,4.1709509 5.6600849,4.1413096 5.5889642,4.1141893 C 5.5077247,4.0884946 5.4273886,4.0610146 5.3495366,4.0262086 C 5.2761958,4.0004999 5.2018413,3.9773352 5.1268216,3.9570795 C 5.0191434,3.923123 4.9108964,3.8849362 4.8128394,3.8284724 C 4.7451022,3.7813838 4.6803303,3.7295371 4.6227,3.670338 C 4.5836455,3.6234561 4.5504342,3.5727925 4.5172915,3.5217302 C 4.4912934,3.4728233 4.4523434,3.4320458 4.4095346,3.3973504 C 4.343844,3.3383752 4.2760897,3.2808883 4.2023311,3.2321837 C 4.1375179,3.1925421 4.0703524,3.1580166 4.001247,3.1264839 C 3.9090791,3.0870161 3.8185992,3.0441663 3.7276806,3.0019471 C 3.6205786,2.9551097 3.5104263,2.9162099 3.4013556,2.874284 C 3.3955936,2.8719203 3.3535459,2.8537647 3.3434648,2.8525673 C 3.3382553,2.8519485 3.3236656,2.8588152 3.3281127,2.8560323 C 3.4569188,2.7754297 3.5875493,2.6977799 3.7172676,2.6186537 C 3.7135824,2.6211502 3.7082119,2.6221665 3.706212,2.6261431 C 3.7025473,2.6334302 3.7030253,2.6421422 3.701432,2.6501417 C 3.6940227,2.7072855 3.6786913,2.7641458 3.6924604,2.8214826 C 3.7048045,2.8811609 3.7256504,2.9386666 3.7326346,2.9994858 C 3.7497054,3.0729925 3.7692196,3.1456738 3.7762459,3.2211383 C 3.7762488,3.2847682 3.7762575,3.3483981 3.7762138,3.4120279 C 3.7761486,3.4784459 3.7760337,3.544864 3.7756296,3.611281 C 3.7751499,3.6910541 3.7742363,3.7708359 3.7753225,3.8506074 C 3.7754791,3.9269144 3.7757429,4.0032154 3.7746801,4.0795211 C 3.7742367,4.164617 3.7749689,4.2497041 3.7753929,4.3347979 C 3.776111,4.4140497 3.774472,4.4932963 3.7741354,4.572548 C 3.7738414,4.6651873 3.7742357,4.757832 3.7749927,4.8504675 C 3.7754805,4.9375911 3.7733477,5.0247086 3.7742783,5.1118343 C 3.7740586,5.2019795 3.7746527,5.2921249 3.7748543,5.3822695 C 3.7744587,5.4660028 3.7754381,5.5497321 3.7747599,5.6334626 C 3.7739092,5.7264765 3.7735432,5.8194951 3.7746517,5.9125085 C 3.7752399,5.9922573 3.7747459,6.0720133 3.7762441,6.1517557 C 3.7762405,6.2156739 3.7762393,6.2795922 3.7761466,6.3435104 C 3.7760259,6.4113186 3.7757993,6.4791264 3.7754715,6.546934 C 3.7752415,6.6169223 3.7758353,6.6868961 3.7761015,6.7568823 C 3.776576,6.82578 3.7774423,6.8947366 3.7830187,6.963449 C 3.7905708,7.0493719 3.8067284,7.1348073 3.806122,7.2211228 C 3.8056817,7.3094216 3.803059,7.3977019 3.7939518,7.4855953 C 3.7842922,7.5890354 3.7675165,7.6919937 3.7734513,7.7962764 C 3.7743975,7.8839951 3.7761878,7.9717138 3.7751215,8.05944 C 3.7748502,8.1517434 3.7740439,8.2440296 3.7710223,8.3362961 C 3.7680085,8.4592367 3.7608574,8.5820463 3.7487078,8.704443 C 3.7339963,8.8658944 3.735294,9.0275749 3.7384657,9.1895902 C 3.7383926,9.3244796 3.7398648,9.4593525 3.7418875,9.5942257 C 3.7422948,9.6880557 3.74258,9.7818841 3.7427995,9.8757145 C 3.7421929,9.9664227 3.7420686,10.057147 3.7431314,10.14785 C 3.7440477,10.217575 3.7446512,10.287301 3.7443041,10.357033 C 3.7441941,10.425023 3.7439877,10.493013 3.743658,10.561003 C 3.7433921,10.635269 3.7440546,10.709525 3.7436177,10.783789 C 3.7432648,10.861239 3.7438318,10.938684 3.7429707,11.01613 C 3.7421808,11.107303 3.7419033,11.198478 3.7429274,11.289651 C 3.7432847,11.36095 3.7451211,11.432235 3.74438,11.503542 C 3.7443708,11.56729 3.7443568,11.631038 3.7442915,11.694786 C 3.7442231,11.758457 3.7440761,11.822127 3.744213,11.885798 C 3.7445101,11.946859 3.7446825,12.008003 3.7494289,12.068916 C 3.7548827,12.125259 3.766299,12.180308 3.7762062,12.235962 C 3.7762076,12.296842 3.7761842,12.357722 3.7764862,12.418602 C 3.7768844,12.478379 3.7770599,12.538216 3.7804718,12.59791 C 3.7856953,12.669178 3.7955744,12.739645 3.8078952,12.810016 C 3.8076978,12.874208 3.8073165,12.938399 3.8071043,13.00259 C 3.8071814,13.058181 3.8059746,13.11434 3.8152385,13.169333 C 3.8152683,13.169436 3.8185356,13.187589 3.8238032,13.189252 C 3.8257255,13.189859 3.843877,13.17907 3.8408009,13.18085 C 3.4550297,13.404024 3.3254946,13.471847 3.4801473,13.390406 C 3.5194835,13.361739 3.5753351,13.353597 3.5812732,13.297123 C 3.5808544,13.232097 3.5797519,13.16696 3.5842579,13.102041 C 3.5914603,13.03137 3.6050079,12.962142 3.6536619,12.907141 C 3.8180174,12.748329 4.0359874,12.605364 4.2686581,12.614327 C 4.3524843,12.617667 4.4443646,12.614769 4.5178977,12.660199 C 4.5657161,12.710747 4.5756093,12.768984 4.5423677,12.831783 C 4.4210197,13.01088 4.1877392,13.100644 3.9805497,13.151458 C 3.9144386,13.158481 3.8484649,13.161276 3.7922348,13.119573 C 3.7364595,13.073921 3.6919635,13.016493 3.6475572,12.960071 C 3.4952076,12.753664 3.4443398,12.926746 3.9422074,12.597236 C 3.9726834,12.630645 4.0298014,12.629878 4.0680481,12.650143 C 4.1272271,12.677695 4.1744549,12.715513 4.2125007,12.769078 C 4.2532792,12.804178 4.2987125,12.838834 4.3535101,12.845632 C 4.3906184,12.844109 4.4392392,12.820037 4.4246554,12.82869 C 3.7683445,13.218113 3.9827743,13.094377 4.117589,13.004635 C 4.1657622,12.962149 4.2162133,12.923898 4.2702581,12.88949 C 4.3211707,12.86469 4.3626276,12.821681 4.4118713,12.793115 C 4.4300986,12.77377 4.4485445,12.749926 4.4704117,12.734441 C 4.7121413,12.56326 5.3439092,12.252799 4.5455162,12.692483 C 4.7357693,12.578961 4.9225222,12.45261 5.1275579,12.367098 C 5.2062949,12.35691 5.240293,12.406458 5.1883938,12.470493 C 5.1812792,12.47765 5.1738126,12.484474 5.1670499,12.491965 C 5.1595403,12.500282 5.1552116,12.512072 5.1456212,12.517868 C 4.9526557,12.6345 4.8201667,12.757735 4.6165111,12.787711 C 4.552368,12.795581 4.4872594,12.792235 4.4250704,12.773475 C 4.3632539,12.74867 4.3171807,12.709182 4.2901291,12.646906 C 4.2643247,12.587621 4.2292887,12.534821 4.1904762,12.483298 C 4.0889479,12.3236 4.0792771,12.538143 4.5965804,12.245121 C 4.608373,12.238441 4.577374,12.211251 4.5785185,12.231305 C 4.5789412,12.238712 4.5821306,12.245697 4.5839367,12.252893 C 4.6065033,12.32256 4.6556367,12.373272 4.7038367,12.426969 C 4.7692184,12.494131 4.8338657,12.563763 4.9121356,12.616227 C 4.9877662,12.657517 5.0708145,12.678705 5.1574787,12.673864 C 5.1874993,12.670042 5.2171275,12.666574 5.2455733,12.655508 C 5.2539827,12.652236 5.2778521,12.639428 5.2700873,12.644025 C 4.9578641,12.82886 4.7610752,12.936703 4.9174414,12.850794 C 4.9781418,12.801687 4.9007775,12.866072 4.9612134,12.809535 C 4.9920746,12.780665 5.02996,12.769365 5.038937,12.722305 C 5.052764,12.669045 5.06075,12.614668 5.079191,12.562744 C 5.101811,12.509911 5.1074677,12.448601 5.1239528,12.393649 C 5.1854333,12.1501 5.3984909,12.103898 5.6363567,11.981735 C 5.7167944,11.976097 5.7553972,12.013257 5.7938119,12.08034 C 5.8008129,12.099197 5.8117888,12.125397 5.8137691,12.145463 C 5.8181817,12.190175 5.8027447,12.237215 5.7963363,12.28085 C 5.785602,12.316526 5.7745008,12.367999 5.7398386,12.389114 C 5.3229382,12.643076 5.481449,12.62887 5.2946339,12.641225 C 5.2095319,12.627987 5.1474388,12.571747 5.0819455,12.519449 C 5.0045628,12.460685 4.9260235,12.40122 4.8765768,12.315456 C 4.8383255,12.241806 4.8143155,12.167001 4.8271381,12.083022 C 4.8365325,12.005149 4.8572591,11.932088 4.9101654,11.871583 C 5.0753825,11.690656 5.2908882,11.551114 5.5215856,11.467754 C 5.5362463,11.467352 5.5511072,11.4641 5.5655678,11.466547 C 5.6350333,11.478304 5.6731664,11.559511 5.7150456,11.606264 C 5.8041706,11.706632 5.9020869,11.797972 5.995916,11.893847 C 6.0424376,11.949335 6.0831355,12.025962 6.1595465,12.03981 C 6.2409852,12.044997 6.3229717,12.042881 6.4043323,12.037253 C 6.6256117,12.012984 6.7972323,11.868097 6.2230756,12.205371 C 6.2102609,12.212899 6.2483284,12.189692 6.2609548,12.181852 C 6.326672,12.125404 6.362387,12.056103 6.3524982,11.967687 C 6.3490669,11.91747 6.3487699,11.859697 6.3157566,11.818695 C 6.2941162,11.808607 6.2757835,11.827392 6.2811886,11.824237 C 7.0727261,11.362203 6.4727675,11.723305 6.2017743,11.865144 C 6.1391839,11.880763 6.0738595,11.880324 6.010806,11.894473 C 5.9516063,11.903796 5.891443,11.898904 5.8324013,11.909907 C 5.6648011,11.968884 5.9060108,11.885482 6.2023432,11.6863 C 6.2127273,11.67932 6.1778016,11.665722 6.1782529,11.666047 C 6.1928708,11.676578 6.2015121,11.679429 6.2189065,11.687631 C 6.2807571,11.718434 6.3318752,11.762271 6.3513079,11.831176 C 6.3894858,12.068191 6.2691008,11.981214 5.9329216,12.157179 C 5.9318879,12.15772 5.9349751,12.15607 5.9360019,12.155516 C 5.9460683,12.09926 5.9434925,12.040656 5.9645785,11.986511 C 5.9899831,11.925759 6.0269672,11.869532 6.0856031,11.83643 C 6.2589921,11.734183 6.2959805,11.388465 6.5966811,11.48264 C 6.6161462,11.485449 6.6355483,11.497422 6.6540605,11.499291 C 6.6629382,11.500188 6.6688539,11.482437 6.6784096,11.48817 C 6.5550528,11.560181 6.4316959,11.632191 6.3083391,11.704202 C 6.5270477,11.572604 6.7370843,11.410341 6.9829018,11.332801 C 7.0754627,11.318683 7.123567,11.332587 7.1538718,11.42591 C 7.162538,11.442192 7.1660614,11.451334 7.1780972,11.464967 C 7.1793847,11.466425 7.184849,11.46682 7.1831845,11.467827 C 6.3554422,11.968649 6.7528417,11.823942 6.7985968,11.672408 C 6.7997545,11.607135 6.8011717,11.540922 6.8217246,11.478274 C 6.8517536,11.403545 6.9060606,11.348044 6.9499304,11.281538 C 6.9552561,11.274642 7.0008593,11.21532 7.0070465,11.208402 C 7.0214933,11.192251 7.0521014,11.163839 7.0709872,11.152624 C 7.4845991,10.906991 7.3495723,10.960259 7.5352161,10.889724 C 7.6185109,10.897858 7.6019959,10.96137 7.6137814,11.024956 C 7.6274725,11.08937 7.6412158,11.156629 7.673312,11.214458 C 7.7173171,11.265548 7.7714318,11.275782 7.8359675,11.25806 C 7.8648164,11.250292 7.8919255,11.241261 7.9194153,11.229513 C 7.9279045,11.225885 7.9527208,11.213682 7.9447792,11.21839 C 7.5816649,11.433614 7.4278695,11.498609 7.5858511,11.430773 C 7.6379906,11.391608 7.6634274,11.338022 7.6836171,11.276928 C 7.7216231,11.186888 7.7419454,11.089947 7.7621073,10.994602 C 7.8195516,10.699772 7.7571936,10.841484 8.2082922,10.574551 C 8.2160301,10.584026 8.2252352,10.592471 8.2315058,10.602974 C 8.2478642,10.630373 8.2287066,10.730391 8.235098,10.765311 C 8.2342692,10.847853 8.2338237,10.930424 8.2299964,11.012893 C 8.2292052,11.238748 7.8204412,11.42009 7.7477969,11.193003 C 7.7308111,11.169272 7.7104584,11.148984 7.6929861,11.125747 C 7.5652164,10.955822 7.8550155,10.934133 8.076187,10.82564 C 8.0829662,10.836104 8.0910128,10.845849 8.0965246,10.857033 C 8.1012956,10.866714 8.1006843,10.914185 8.0918583,10.919401 C 7.6777023,11.164161 7.8069346,11.223143 7.6412349,11.137059 C 7.5925634,11.098861 7.5469647,11.054637 7.5162034,11.000484 C 7.4955765,10.938624 7.5047851,10.876001 7.5231293,10.814142 C 7.5425971,10.762445 7.5734209,10.719772 7.60692,10.676582 C 7.6311388,10.653231 7.6211679,10.660059 7.65058,10.642997 C 7.7970761,10.558015 7.9782147,10.422506 8.1595503,10.363344 C 8.2253934,10.352155 8.2902531,10.354671 8.3531871,10.379449 C 8.4158277,10.408098 8.4695514,10.44925 8.4965195,10.514836 C 8.5155054,10.577418 8.5242708,10.643123 8.5222905,10.708514 C 8.5226107,10.729743 8.5226763,10.743744 8.523541,10.764762 C 8.5241569,10.779732 8.5369242,10.840223 8.511453,10.789562 C 7.9711615,11.117934 8.0929091,11.136182 8.1798436,10.897834 C 8.2037733,10.845659 8.2266885,10.794486 8.2440003,10.739757 C 8.2777313,10.560395 8.2423369,10.718838 8.6851253,10.5068 C 8.6863629,10.506208 8.684069,10.509367 8.6838886,10.510727 C 8.682523,10.521029 8.6822507,10.53845 8.6823476,10.547549 C 8.6824474,10.556928 8.6829946,10.566297 8.6833181,10.575671 C 8.6842923,10.592 8.6912975,10.61825 8.6886835,10.634494 C 8.6884212,10.636125 8.686812,10.630061 8.6853508,10.63083 C 8.2604858,10.854438 8.1179364,10.839492 8.2861046,10.854308 C 8.3247403,10.81021 8.3216785,10.743239 8.3631458,10.699254 C 8.4728427,10.474098 8.6846971,10.402119 8.9162768,10.283713 C 8.980888,10.26976 9.0364728,10.283312 9.0662361,10.347668 C 9.0831694,10.401534 9.0925713,10.459642 9.0961873,10.515798 C 9.0965614,10.524108 9.0968255,10.532424 9.0973096,10.540729 C 9.097676,10.547015 9.1041627,10.556367 9.0987384,10.559565 C 8.5042199,10.910076 8.6610541,10.923535 8.6946143,10.728578 C 8.7086648,10.670081 8.7257982,10.61336 8.7323037,10.553175 C 8.7868057,10.336734 8.7888556,10.220666 9.1932676,10.187202 C 9.2426082,10.192718 9.2829037,10.217077 9.3293334,10.230063 C 9.4779486,10.157305 9.2904225,10.248693 8.9574836,10.45101 C 8.9534021,10.45349 8.9766847,10.459171 8.9913227,10.424528 C 8.9996698,10.404773 8.9992353,10.38204 9.0081592,10.362433 C 9.0172703,10.298656 9.0337161,10.23622 9.0353982,10.171585 C 9.0678562,9.9265637 9.1881535,9.944775 9.4947232,9.7953759 C 9.5503431,9.8244798 9.5520013,9.8753119 9.5564416,9.9333327 C 9.5656747,9.9947607 9.5774425,10.055334 9.5794048,10.11757 C 9.5807638,10.125042 9.5867607,10.146972 9.5840581,10.139874 C 9.5174395,9.9649174 9.046005,10.494077 9.2161466,10.334766 C 9.2393447,10.277676 9.2689654,10.221781 9.2985208,10.168437 C 10.379518,9.6614644 9.8110471,9.9059387 9.6934974,9.9874126 C 9.6660173,10.006459 9.6492953,10.035787 9.6212366,10.05408 C 9.6163775,10.057781 9.5814461,10.08921 9.570907,10.082606 C 9.5614599,10.076687 9.5425227,10.058544 9.5528851,10.054432 C 9.5574364,10.052626 9.562662,10.053874 9.5675504,10.053595 C 9.6527287,10.04535 9.7376569,10.032364 9.8235752,10.036412 C 9.8709131,10.035339 9.9247662,10.039195 9.9712375,10.027398 C 9.9789571,10.025439 9.9993512,10.012533 9.9927308,10.016961 C 9.6105469,10.272557 9.4696214,10.206482 9.6162976,10.272742 C 9.5733943,10.219932 9.5659258,10.179752 9.5708614,10.11185 C 9.5707736,10.048023 9.570616,9.9841949 9.5703253,9.9203676 C 9.5701048,9.8552219 9.5694701,9.7900199 9.5727752,9.7249336 C 9.5774912,9.6595304 9.5846787,9.5932677 9.616411,9.5345747 C 9.6411053,9.507404 9.6293623,9.5222111 9.6512421,9.4898409 C 9.6659889,9.4722865 9.6797487,9.4628476 9.6995153,9.4515331 C 10.132197,9.2038622 9.9715476,9.2526574 10.161837,9.1981054 C 10.216867,9.1881162 10.271674,9.1732593 10.327838,9.1725744 C 10.402607,9.1730618 10.477492,9.1738907 10.551976,9.1811301 C 10.635509,9.1911178 10.716978,9.2110873 10.795453,9.2418373 C 10.867355,9.2734229 10.921114,9.3189362 10.904801,9.4043037 C 10.895156,9.4686966 10.877037,9.5289666 10.844798,9.585958 C 10.73022,9.7535847 10.390956,9.8873496 10.288887,9.9579961 C 10.41075,9.8874616 10.777067,9.6771313 10.654476,9.7463927 C 10.478918,9.8455791 10.291387,9.9811395 10.092282,10.052557 C 10.025526,10.067983 9.9498634,10.076869 9.891021,10.035145 C 9.8503011,9.9809229 9.8535793,9.9203768 9.8549641,9.8549445 C 9.8549366,9.7942898 9.8526277,9.731231 9.8764634,9.6742316 C 10.316689,9.4202544 10.195349,9.3940813 10.526852,9.4626791 C 10.616205,9.476174 10.707298,9.484194 10.7924,9.5165199 C 10.800409,9.5192569 10.808418,9.5219939 10.816428,9.5247308 C 10.823221,9.5274266 10.829922,9.5303691 10.836809,9.5328183 C 10.841697,9.5345569 10.846599,9.5381142 10.85172,9.5372828 C 10.854628,9.5368108 10.858731,9.5281538 10.856206,9.5296694 C 10.453943,9.7710671 10.314387,9.73118 10.473668,9.7735161 C 10.473319,9.7494555 10.45918,9.6900988 10.440335,9.6754707 C 10.31011,9.715421 9.9466823,10.077288 10.785994,9.4677768 C 10.79765,9.460971 10.700848,9.5234588 10.709309,9.5357788 C 10.695849,9.5529624 10.690385,9.5549715 10.687147,9.5762567 C 10.686035,9.5835655 10.693138,9.5943861 10.686952,9.5984346 C 10.476672,9.7360556 10.359007,9.9746875 10.244628,9.8136066 C 10.216642,9.7561271 10.199611,9.6993798 10.212962,9.6349506 C 10.223905,9.5696771 10.244894,9.5123475 10.302655,9.474072 C 10.46884,9.3186968 10.691692,9.218066 10.906028,9.1399197 C 10.950185,9.1244744 10.993286,9.1075648 11.035629,9.0875598 C 11.050622,9.0804762 11.094401,9.0568777 11.080128,9.0653199 C 11.049997,9.0831425 10.024996,9.6767704 11.17085,9.0124098 C 11.054916,9.0794294 10.938691,9.1459477 10.823048,9.2134685 C 10.738374,9.2629077 10.892872,9.1757472 10.903413,9.1684446 C 10.908042,9.1652383 10.944155,9.1334288 10.945327,9.1335464 C 10.954234,9.1344399 10.95923,9.1448253 10.966181,9.1504647 C 10.956558,9.1587588 10.921243,9.1630445 10.91084,9.1668448 C 10.885588,9.1760706 10.858045,9.1892617 10.834245,9.2015117 C 10.820789,9.2084376 10.807619,9.2159057 10.794306,9.2231028 C 10.644436,9.3040647 10.427372,9.4382989 11.098391,9.0446222 C 11.102662,9.0421164 11.088891,9.0474717 11.084301,9.0493294 C 10.935127,9.1097013 10.722627,9.3676346 10.637125,9.2312998 C 10.552847,9.0969161 10.912187,9.0732235 11.049718,8.9941854 C 11.131992,8.9850122 11.214054,8.9784221 11.297002,8.9837905 C 11.451428,8.9859441 11.606601,8.9840124 11.760265,9.000752 C 11.775459,9.0057061 11.791538,9.0084958 11.805847,9.0156142 C 11.873899,9.0494707 11.866119,9.123873 11.828435,9.1769546 C 11.818814,9.1904559 11.786631,9.236197 11.776029,9.2487255 C 11.640899,9.4084066 11.432081,9.4989702 11.234421,9.5606158 C 11.137986,9.5773561 11.040836,9.5773424 10.9432,9.5725023 C 10.87594,9.5693959 10.77056,9.5771369 10.717548,9.5258878 C 10.708409,9.5170522 10.703385,9.5047736 10.696304,9.4942165 C 10.695585,9.4836358 10.692171,9.4728933 10.694149,9.4624742 C 10.705321,9.4036238 10.77106,9.3646318 10.799565,9.3154754 C 10.851679,9.2629154 10.895278,9.2068078 10.934897,9.144355 C 11.076235,8.9671064 11.296303,8.8462496 11.515765,8.7955522 C 11.597483,8.7829965 11.680516,8.7814898 11.761523,8.7639961 C 11.833045,8.7507743 11.906463,8.7518421 11.977779,8.7363889 C 12.070124,8.7186059 12.16569,8.7042426 12.25092,8.6629726 C 12.128902,8.7340224 12.006965,8.805213 11.884865,8.8761219 C 11.87548,8.8815723 11.903577,8.8651143 11.912772,8.8593496 C 11.934916,8.8454683 11.953217,8.8312142 11.972973,8.8570071 C 11.917617,8.8744355 11.860117,8.8862215 11.807255,8.9117696 C 11.731145,8.9342462 11.653249,8.9406929 11.574,8.9389238 C 11.494056,8.9416844 11.413286,8.9453507 11.336024,8.9680141 C 11.271446,8.9879602 11.207123,9.0090763 11.141457,9.0251945 C 11.113142,9.0219038 11.103869,9.0262219 11.084097,8.9999122 C 10.963168,8.8389966 11.363623,8.7277083 11.534659,8.7273932 C 11.60167,8.7274772 11.668706,8.7276725 11.735678,8.7250338 C 11.824285,8.7207022 11.912651,8.7124528 11.999754,8.6949609 C 12.106899,8.6757644 12.214624,8.6601452 12.321584,8.639908 C 12.39927,8.6310947 12.476901,8.6330471 12.554954,8.6308131 C 12.616917,8.6275042 12.679778,8.6225083 12.735924,8.5934996 C 12.61169,8.6659166 12.487246,8.7379748 12.363221,8.8107505 C 12.354285,8.8159939 12.381867,8.8016225 12.390638,8.7961084 C 12.424174,8.7750262 12.454961,8.7503291 12.471668,8.7134926 C 12.478524,8.6983001 12.485428,8.6805553 12.495549,8.6669338 C 12.505907,8.6529945 12.527263,8.6420666 12.500361,8.631646 C 12.439979,8.6254396 12.380651,8.6488316 12.320451,8.6509565 C 12.223469,8.6550142 12.123884,8.6569088 12.028563,8.6372914 C 11.996674,8.6137822 11.968905,8.5941089 11.991165,8.5518479 C 11.996415,8.5418809 12.001069,8.5302032 12.010602,8.5242012 C 12.358532,8.3051397 12.293079,8.3362909 12.471571,8.2555704 C 12.54955,8.2241535 12.629725,8.1997174 12.714149,8.1938371 C 12.800738,8.1851716 12.887381,8.1878386 12.97431,8.1872653 C 13.049333,8.1853894 13.128279,8.1874753 13.197874,8.1557762 C 13.072868,8.2303408 12.947789,8.3047821 12.822857,8.37947 C 12.81618,8.383462 12.8371,8.3728092 12.843108,8.367866 C 12.873535,8.3428288 12.871601,8.3013746 12.877325,8.2660912 C 12.882477,8.2101949 12.863397,8.1588243 12.822649,8.1196721 C 12.763457,8.0684049 12.701476,8.0200011 12.647534,7.9629537 C 12.586136,7.8946927 12.524275,7.826726 12.460727,7.7605221 L 12.862475,7.5143305 z" />
    <path
       style="fill:#336699"
       id="path3241"
       d="M 3.4558159,1.0484646 C 3.5535361,1.0567988 3.6507313,1.0452011 3.7479999,1.0366742 C 3.8544176,1.0261928 3.9613095,1.0227361 4.0681506,1.0200791 C 4.1492336,1.022732 4.195684,0.9910463 4.2444964,1.0669336 C 4.2598166,1.0985076 4.2937855,1.1940091 4.2513181,1.219542 C 4.1094221,1.3048548 3.9620306,1.3806745 3.8173868,1.4612407 C 3.7172236,1.4617929 3.6170995,1.4573889 3.5169738,1.4549575 C 3.446821,1.4557681 3.3790022,1.4355168 3.3096577,1.4271539 C 3.1717148,1.4119473 2.681105,1.7666005 3.6733055,1.2110249 C 3.6786262,1.2080457 3.6582541,1.213155 3.6568892,1.2190983 C 3.6558668,1.2235499 3.6572442,1.2282265 3.6574217,1.2327906 C 3.6727264,1.2679675 3.7238534,1.2668731 3.7566062,1.2702409 C 3.7995996,1.2678293 3.8480401,1.2829298 3.890341,1.2710411 C 3.476728,1.581683 3.6279636,1.548442 3.3411858,1.5476292 C 3.1876363,1.5507867 2.86259,1.8322086 3.6963366,1.3309213 C 3.7052089,1.3255869 3.6689022,1.3129779 3.6960883,1.3206495 C 3.7448649,1.3337362 3.7958051,1.3347868 3.8459777,1.3363242 C 4.1077033,1.3880601 3.6755074,1.655283 3.4941527,1.6427251 C 3.4371302,1.6436074 3.3801046,1.6438508 3.323076,1.6438697 C 3.2760446,1.6472576 3.2274029,1.6382835 3.1806557,1.6460803 C 3.3112596,1.5527822 3.4418635,1.459484 3.5724674,1.3661858 C 3.5740721,1.3628481 3.5743185,1.3583944 3.5772815,1.3561726 C 3.5866479,1.3491493 3.59902,1.3471948 3.6089654,1.3410186 L 3.2403977,1.6346636 C 3.0123856,1.7168731 3.4635534,1.3474302 3.5667222,1.3662334 C 3.6111068,1.3718445 3.6567429,1.3674054 3.7015483,1.3685953 C 3.7582465,1.3680296 3.8156987,1.3690514 3.8716101,1.3585292 C 4.0308603,1.2823641 3.743747,1.4189972 3.4948231,1.5956268 C 3.4663344,1.6158416 3.5498759,1.6215134 3.4918335,1.6124527 C 3.4832713,1.6111161 3.4745878,1.6107277 3.465965,1.6098653 C 3.4087781,1.60659 3.3488413,1.6043046 3.2978529,1.5753576 C 3.1151457,1.4184403 3.5316926,1.2514835 3.71847,1.2736186 C 3.9913227,1.2738157 3.9823721,1.2202619 3.5046181,1.5513783 C 3.4615639,1.5442283 3.4163403,1.5484331 3.3729717,1.5402397 C 3.31699,1.5292774 3.2637731,1.5114578 3.240262,1.4543836 C 3.1847483,1.2393183 3.4892981,1.1098289 3.6926378,1.1570132 C 3.7590245,1.1676843 3.8246636,1.1851902 3.8924361,1.1839377 C 3.9902646,1.1876262 4.0909855,1.1971828 4.1870874,1.1750053 C 4.0636309,1.2488981 3.9390497,1.3209437 3.8167177,1.3966837 C 3.8042558,1.4043992 3.8499001,1.3887314 3.8549555,1.3749739 C 3.8631689,1.3526223 3.8465781,1.3258618 3.8388856,1.3062042 C 3.8115518,1.2753363 3.7309975,1.2999923 3.6937488,1.2933421 C 3.5887562,1.2952838 3.4838456,1.3000551 3.3792346,1.3095009 C 3.2772721,1.3182403 3.1754586,1.3261039 3.0730486,1.3265614 L 3.4558159,1.0484646 z" />
  </g>
</svg>
